<?xml version="1.0" encoding="UTF-8"?><svg id="Warstwa_1" xmlns="http://www.w3.org/2000/svg" viewBox="0 0 1153.29 324.53"><defs><style>.cls-1{fill:#221f20;stroke-width:0px;}</style></defs><path class="cls-1" d="m207.7,195.13c0-15.91,3.97-29.79,11.81-41.26-1.76-4.76-4.17-8.78-7.19-11.95-7.03-7.47-16.91-11.26-29.36-11.26-8.57,0-16.06,1.42-22.25,4.21-1.47.66-2.96,1.44-4.44,2.32-2.07,1.22-4.49,1.87-7.01,1.87s-4.99-.65-7.14-1.87c-3.9-2.22-6.14-5.93-6.14-10.17v-37.9c0-2.59-2.11-4.7-4.7-4.7h-33.52c-2.59,0-4.7,2.11-4.7,4.7v37.86h4.36c6.23,0,11.3,5.07,11.3,11.3v20.14c0,6.23-5.07,11.3-11.3,11.3h-4.36v53.85c.14-.02.28-.05.42-.08.79-.15,1.6-.23,2.41-.23,2.69,0,5.33.86,7.45,2.43,2.61,1.94,4.24,4.75,4.58,7.94l1.85,17.29c.19,1.78-.06,3.6-.72,5.28h22.24c2.59,0,4.7-2.11,4.7-4.7v-54.05c0-12.67,2.08-21.35,6.35-26.55,4.37-5.32,10.14-8.02,17.15-8.02,6.4,0,11.49,2.1,15.13,6.23,3.58,3.97,5.33,10.3,5.33,19.34v63.06c0,2.59,2.11,4.7,4.7,4.7h33.77c2.59,0,4.7-2.11,4.7-4.7v-10.04c-1.87-2.33-3.65-4.85-5.28-7.48-6.71-11.04-10.11-24.11-10.11-38.85Z"/><path class="cls-1" d="m88.17,230.57c-4.37-.41-7.58-2.31-9.56-5.67-1.39-2.35-2.04-6.36-2.04-12.62v-37.87c0-6.23,5.07-11.3,11.3-11.3h.3v-29.54h-.3c-6.23,0-11.3-5.07-11.3-11.3v-28.07c0-1.65-.84-3.15-2.25-4.01-.74-.46-1.59-.7-2.45-.7-.74,0-1.48.18-2.15.52l-33.64,17.23c-1.58.81-2.56,2.41-2.56,4.18v10.84c0,6.23-5.07,11.3-11.3,11.3h-2.25c-2.59,0-4.7,2.11-4.7,4.7v20.14c0,2.59,2.11,4.7,4.7,4.7h2.25c6.23,0,11.3,5.07,11.3,11.3v37.51c0,13.92,1.3,24.05,3.87,30.1,2.51,5.66,6.4,9.95,11.55,12.75,5.33,2.88,13.97,4.35,25.68,4.35,4.96,0,10.24-.32,15.72-.94-1.42-1.93-2.19-4.28-2.19-6.68v-20.92Z"/><path class="cls-1" d="m104.11,158.41v-20.14c0-3.14-2.56-5.7-5.7-5.7h-5.36v31.54h5.36c3.14,0,5.7-2.56,5.7-5.7Z"/><path class="cls-1" d="m103.34,234.22c-.17-1.61-1-3.04-2.34-4.03-1.16-.86-2.62-1.34-4.12-1.34-.45,0-.91.04-1.36.13-.8.15-1.62.28-2.47.4v22.11c0,3.14,2.56,5.7,5.7,5.7h3.17c2.18-.94,3.52-3.27,3.27-5.68l-1.85-17.29Z"/><path class="cls-1" d="m326.28,138.67c-10.18-5.32-24.4-8.02-42.28-8.02-21.8,0-39.09,5.99-51.37,17.82-2.11,2.04-4.06,4.23-5.81,6.51,1.9,6.46,2.87,13.99,2.87,22.38v61.7c4.89,5.65,10.56,10.1,16.84,13.22,9.3,4.54,22.4,6.84,38.93,6.84,19.08,0,33.82-2.7,43.84-8.01,4.46-2.4,8.74-5.62,12.74-9.57v-13.65l-28.96-2.67c-.15-.01-.29-.02-.43-.02-1.44,0-2.85.67-3.99,1.88-2.25,2.41-4.47,4.25-6.58,5.47-4.89,2.72-10.11,4.09-15.52,4.09-8.68,0-15.83-3.21-21.25-9.55-2.29-2.61-4.09-6.04-5.36-10.18-.91-2.98-.37-6.13,1.49-8.64,2.03-2.75,5.35-4.39,8.88-4.39h71.72v-52.91c-4.37-4.97-9.67-9.1-15.76-12.29Zm-16.07,43.82c-2.05,2.66-5.33,4.25-8.78,4.25h-31.05c-3.48,0-6.78-1.61-8.82-4.32-1.88-2.49-2.47-5.63-1.63-8.61,1.11-3.92,2.69-7.21,4.67-9.78,5.32-7.07,12.55-10.65,21.47-10.65,7.69,0,14,2.41,18.76,7.17,3.2,3.14,5.6,7.63,7.12,13.33.8,3,.16,6.13-1.74,8.61Z"/><path class="cls-1" d="m213.3,195.13c0,13.7,3.12,25.78,9.28,35.92.47.76.97,1.53,1.51,2.33v-56.01c0-6.43-.6-12.31-1.78-17.49-5.98,9.97-9.01,21.83-9.01,35.25Z"/><path class="cls-1" d="m493.38,137.48c.01-.53.03-1.06.03-1.6,0-16.5-4.69-29.33-13.94-38.13-9.22-8.84-23.52-13.33-42.5-13.33h-83.62c-2.59,0-4.7,2.11-4.7,4.7v59.45c2.48,3.08,4.68,6.44,6.55,9.98,5.82,11.05,8.78,25.53,8.78,43.03,0,4.91-3.99,8.9-8.9,8.9h-6.42v41.02c0,2.59,2.11,4.7,4.7,4.7h39.36c2.59,0,4.7-2.11,4.7-4.7v-50.19c0-6.23,5.07-11.3,11.3-11.3h22.18c13.5,0,24.96-1.98,34.07-5.89,2.14-15.69,8.94-29.12,20.22-39.92,2.52-2.43,5.28-4.69,8.2-6.72Zm-54.62,16.71c-4.98,4.23-13.01,6.28-24.55,6.28h-5.51c-6.23,0-11.3-5.07-11.3-11.3v-23.79c0-6.23,5.07-11.3,11.3-11.3h7.7c11.34,0,19.01,2.24,23.43,6.86,4.32,4.51,6.51,10.07,6.51,16.52s-2.55,12.36-7.59,16.73Z"/><path class="cls-1" d="m358.36,201.58c0-16.58-2.74-30.18-8.13-40.42-.79-1.5-1.66-2.99-2.59-4.43v48.14h7.42c1.82,0,3.3-1.48,3.3-3.3Z"/><path class="cls-1" d="m541.37,130.65c-16.3,0-30.27,3.53-41.53,10.5-1.01,16.42-6.79,29.66-17.18,39.36-3.3,3.1-7.19,5.8-11.55,8.03-.2,2.24-.3,4.5-.3,6.72,0,20.04,7.54,36.46,22.41,48.81,12.14,9.99,28.38,15.06,48.27,15.06,22.29,0,39.9-6.08,52.34-18.06,2.16-2.08,4.18-4.32,5.99-6.65v-79.58c-.83-1.07-1.56-1.96-2.28-2.78-12.51-14.19-31.4-21.39-56.17-21.39Zm20.4,92.28c-5.17,6.18-11.91,9.32-20.04,9.32s-14.82-3.17-20.15-9.43c-5.13-6.11-7.73-15.43-7.73-27.69s2.64-21.35,7.85-27.45c5.33-6.34,12.19-9.55,20.4-9.55s14.43,3.18,19.69,9.45c5.11,6.01,7.71,15.12,7.71,27.06,0,12.75-2.6,22.27-7.72,28.3Z"/><path class="cls-1" d="m470.92,182.25c2.94-1.71,5.6-3.67,7.91-5.84,8.63-8.05,13.73-18.96,15.15-32.43-1.75,1.36-3.41,2.78-4.92,4.24-9.69,9.28-15.79,20.72-18.14,34.02Z"/><path class="cls-1" d="m635.63,225.3c0-10.62,3.2-19.51,9.5-26.44,1.22-1.34,2.68-2.65,4.33-3.89v-105.86c0-2.59-2.11-4.7-4.7-4.7h-33.64c-2.59,0-4.7,2.11-4.7,4.7v63.49c8.52,11.74,12.83,25.84,12.83,41.91s-4.32,30.3-12.83,42.07v14.9c0,2.59,2.11,4.7,4.7,4.7h33.64c1.57,0,3-.76,3.87-2.04-8.63-7.77-13.01-17.47-13.01-28.85Z"/><path class="cls-1" d="m605.42,161.37v66.43c5.47-9.63,8.23-20.82,8.23-33.29s-2.77-23.55-8.23-33.15Z"/><path class="cls-1" d="m779.42,247.11c-.37-1.76-.66-3.83-.85-6.16-3.4-4.11-6.29-8.61-8.59-13.35-3.93-8.12-5.93-18.92-5.93-32.1s2.42-25.45,7.18-34.73c.88-1.71,1.89-3.45,3.02-5.19-2.18-5.52-5.04-9.84-8.5-12.83-5.53-4.86-12.57-8.08-20.94-9.59-8.78-1.66-20.61-2.5-35.19-2.5-9.02,0-17.51.68-25.23,2.02-7.55,1.31-13.5,3.15-17.7,5.48-4.21,2.32-7.79,5.01-10.63,7.99v19.07l28.13,2.97c.17.02.33.03.49.03,2.33,0,4.22-1.82,5.2-3.52,1.73-2.99,3.8-5.27,6.16-6.78,4.64-2.97,11.2-4.42,20.03-4.42,7.29,0,12.37,1.5,15.56,4.58,2.19,2.12,3.65,5.21,4.32,9.17.79,4.65-2.07,9.28-6.8,11.01-4.37,1.6-8.64,2.98-12.68,4.11-5.64,1.49-17.54,4.06-36.38,7.84-10.23,2.03-18.32,4.82-24.04,8.29v53s0,.06,0,.09c7.26,5,17.34,7.53,29.96,7.53,11.12,0,20.98-1.72,29.29-5.11,4-1.67,8.1-4.15,12.19-7.36,1.44-1.14,3.17-1.74,5-1.74.84,0,1.69.13,2.51.38,2.73.84,4.88,2.96,5.74,5.66.24.72.68,1.74,1.27,2.95.68,1.39,2.22,2.29,3.92,2.29h29.03c1.51,0,2.87-.69,3.82-1.95,1.19-1.57,1.57-3.7,1.01-5.68-.14-.51-.27-.99-.38-1.45Zm-46.43-24.42c-2.23,4.37-6.07,8.1-11.42,11.09-5.17,2.94-10.87,4.44-16.94,4.44s-10.86-1.51-14.23-4.48c-3.41-3.2-5.13-7.26-5.13-12.09,0-4.32,1.73-8.18,5.14-11.49,3.12-3.02,9.84-5.88,20.55-8.73,4.62-1.17,9.21-2.47,13.65-3.88.88-.28,1.81-.42,2.74-.42,1.93,0,3.84.62,5.38,1.75,2.33,1.7,3.67,4.33,3.67,7.2,0,6.67-1.15,12.26-3.41,16.61Z"/><path class="cls-1" d="m649.27,202.64c-5.34,5.86-8.04,13.48-8.04,22.67s3.02,16.48,9.23,22.84v-46.71c-.46.42-.85.82-1.19,1.2Z"/><path class="cls-1" d="m910.8,221.9c.43-1.07.34-2.22-.25-3.21-.69-1.15-1.94-1.94-3.35-2.1l-31.36-3.57c-.16-.02-.32-.03-.48-.03-2.05,0-4.09,1.41-5.2,3.59-2.2,4.34-5.06,7.83-8.48,10.39-4.93,3.74-11.08,5.64-18.28,5.64-8.72,0-16.01-3.15-21.66-9.35-5.58-6.12-8.41-15.01-8.41-26.44,0-12.68,2.81-22.37,8.34-28.8,5.74-6.65,13.3-10.03,22.46-10.03,7.18,0,13.05,1.65,17.42,4.91,2.5,1.77,4.6,4.08,6.25,6.87,1.15,1.95,3.26,4.02,5.75,4.02.2,0,.41-.01.61-.04l19.26-2.56-11.99-28.56c-.77-1.82-1.04-3.81-.8-5.75-9.8-4.14-22.57-6.25-37.96-6.25-14.59,0-26.65,1.92-35.85,5.71-5.7,2.36-11.36,6.04-16.81,10.96-3.17,2.81-5.99,5.9-8.4,9.18,2.14,6.37,3.23,12.57,3.23,18.42v57.07c0,2.24.06,4.36.16,6.31,1.76,2,3.64,3.87,5.58,5.57,6.16,5.33,13.64,9.27,22.21,11.72,8.82,2.42,20.06,3.64,33.41,3.64s25.02-1.91,33.73-5.69c8.73-3.75,15.97-9.05,21.53-15.75,3.84-4.68,6.99-10.03,9.35-15.9Z"/><path class="cls-1" d="m775.02,225.15c1.22,2.52,2.64,4.98,4.22,7.34,0-.17,0-.33,0-.5v-57.07c0-4.29-.66-8.84-1.98-13.54-.38.68-.73,1.31-1.04,1.93-4.35,8.47-6.56,19.3-6.56,32.17s1.81,22.3,5.37,29.66Z"/><path class="cls-1" d="m1024.63,135.59c-.89-1.28-2.3-2.02-3.86-2.02h-31.27c-2.09,0-3.94,1.4-4.52,3.4l-15.64,54.47c-1.41,4.92-5.63,8.13-10.74,8.18-5.15,0-9.41-3.12-10.91-7.96l-16.97-54.78c-.61-1.98-2.42-3.31-4.49-3.31h-34.39c-.74,0-1.46.17-2.11.49,1.03.6,2.03,1.23,2.98,1.88,9.2,6.25,16.33,14.87,21.19,25.62,1.34,2.97,1.21,6.32-.38,9.17-1.67,3.01-4.75,5.08-8.24,5.54l-2.44.32,33.06,78.72c1.15,2.73,1.16,5.79.05,8.39-2.51,5.87-5.6,10.18-9.18,12.8-4.12,3.09-9.53,4.65-16.07,4.65-4.25,0-8.37-.26-12.25-.78-.27-.04-.55-.05-.82-.05-1.68,0-3.33.67-4.54,1.85-1.19,1.16-1.75,2.65-1.58,4.17l1.81,16.07c.24,2.16,1.9,3.84,4.04,4.1,11.62,1.4,20.53,2.11,26.48,2.11,16.68,0,29.15-3.64,37.09-10.83,5.66-5.13,11.38-15.42,17.01-30.58l47.23-127.32c.54-1.46.34-3.04-.55-4.32Z"/><path class="cls-1" d="m904.54,170.73c1.74-.23,3.26-1.25,4.08-2.71.73-1.31.79-2.78.17-4.15-4.43-9.8-10.9-17.64-19.24-23.3-1.04-.71-2.18-1.41-3.41-2.1.02.69.17,1.37.44,2.01l12.98,30.91,4.97-.66Z"/><path class="cls-1" d="m987.08,35.4c0-7.71,6.25-13.96,13.96-13.96h56.3c.42,0,.84.02,1.25.06.41-.04.82-.06,1.24-.06h19.38c6.1,0,11.49,3.96,13.31,9.79l.08.23.05-.17c1.8-5.85,7.21-9.85,13.33-9.85h18.81c4.56,0,8.85,2.24,11.46,5.99,2.6,3.75,3.22,8.54,1.63,12.82l-22.24,59.94c-2.03,5.47-7.25,9.1-13.08,9.1h-20.07c-5.81,0-11-3.59-13.05-9.02l-13.65-36.11h-3.37v31.18c0,7.71-6.25,13.96-13.96,13.96h-18.53c-7.7,0-13.96-6.25-13.96-13.96v-31.18h-4.93c-7.7,0-13.96-6.25-13.96-13.96v-14.8Zm51.37,14.8h18.89v-14.8h-56.3v14.8h18.89v45.14h18.53v-45.14Zm44.03,45.14h20.07l22.24-59.94h-18.81l-13.29,43.13-13.49-43.13h-19.38l22.65,59.94Z"/></svg>